<mxfile host="app.diagrams.net" modified="2023-02-10T06:28:01.517Z" agent="5.0 (Windows NT 10.0; Win64; x64) AppleWebKit/537.36 (KHTML, like Gecko) Chrome/109.0.0.0 Safari/537.36" etag="qSHgbg1iBLNi1N-lEDZL" version="20.8.18" type="github" pages="2">
  <diagram id="cSWMKLoGGP4RG6YJdNn4" name="As-Is">
    <mxGraphModel dx="2074" dy="1116" grid="1" gridSize="10" guides="1" tooltips="1" connect="1" arrows="1" fold="1" page="1" pageScale="1" pageWidth="827" pageHeight="1169" math="0" shadow="0">
      <root>
        <mxCell id="0" />
        <mxCell id="1" parent="0" />
        <mxCell id="2uVUvkbUTynAuup2ZZRn-20" value="인천" style="points=[[0,0],[0.25,0],[0.5,0],[0.75,0],[1,0],[1,0.25],[1,0.5],[1,0.75],[1,1],[0.75,1],[0.5,1],[0.25,1],[0,1],[0,0.75],[0,0.5],[0,0.25]];outlineConnect=0;gradientColor=none;html=1;whiteSpace=wrap;fontSize=12;fontStyle=0;container=1;pointerEvents=0;collapsible=0;recursiveResize=0;shape=mxgraph.aws4.group;grIcon=mxgraph.aws4.group_vpc;strokeColor=#248814;fillColor=none;verticalAlign=top;align=left;spacingLeft=30;fontColor=#AAB7B8;dashed=0;rounded=1;shadow=0;glass=0;sketch=0;strokeWidth=1;" parent="1" vertex="1">
          <mxGeometry x="40" y="40" width="760" height="520" as="geometry" />
        </mxCell>
        <mxCell id="2uVUvkbUTynAuup2ZZRn-21" value="임직원, 서버" style="points=[[0,0],[0.25,0],[0.5,0],[0.75,0],[1,0],[1,0.25],[1,0.5],[1,0.75],[1,1],[0.75,1],[0.5,1],[0.25,1],[0,1],[0,0.75],[0,0.5],[0,0.25]];outlineConnect=0;gradientColor=none;html=1;whiteSpace=wrap;fontSize=12;fontStyle=0;container=1;pointerEvents=0;collapsible=0;recursiveResize=0;shape=mxgraph.aws4.group;grIcon=mxgraph.aws4.group_security_group;grStroke=0;strokeColor=#147EBA;fillColor=#E6F2F8;verticalAlign=top;align=left;spacingLeft=30;fontColor=#147EBA;dashed=0;rounded=1;shadow=0;glass=0;sketch=0;strokeWidth=1;" parent="2uVUvkbUTynAuup2ZZRn-20" vertex="1">
          <mxGeometry x="39" y="39.5" width="201" height="200.5" as="geometry" />
        </mxCell>
        <mxCell id="2uVUvkbUTynAuup2ZZRn-7" value="&lt;font style=&quot;font-size: 15px;&quot;&gt;192.168.0.0/24&lt;/font&gt;" style="rounded=1;whiteSpace=wrap;html=1;fillColor=none;strokeWidth=1;strokeColor=#4d27aa;glass=0;shadow=0;" parent="2uVUvkbUTynAuup2ZZRn-21" vertex="1">
          <mxGeometry x="20.5" y="40.5" width="160" height="40" as="geometry" />
        </mxCell>
        <mxCell id="2uVUvkbUTynAuup2ZZRn-23" value="방문자" style="points=[[0,0],[0.25,0],[0.5,0],[0.75,0],[1,0],[1,0.25],[1,0.5],[1,0.75],[1,1],[0.75,1],[0.5,1],[0.25,1],[0,1],[0,0.75],[0,0.5],[0,0.25]];outlineConnect=0;gradientColor=none;html=1;whiteSpace=wrap;fontSize=12;fontStyle=0;container=1;pointerEvents=0;collapsible=0;recursiveResize=0;shape=mxgraph.aws4.group;grIcon=mxgraph.aws4.group_security_group;grStroke=0;strokeColor=#248814;fillColor=#E9F3E6;verticalAlign=top;align=left;spacingLeft=30;fontColor=#248814;dashed=0;rounded=1;shadow=0;glass=0;sketch=0;strokeWidth=1;" parent="2uVUvkbUTynAuup2ZZRn-20" vertex="1">
          <mxGeometry x="40" y="280" width="200" height="201" as="geometry" />
        </mxCell>
        <mxCell id="2uVUvkbUTynAuup2ZZRn-15" value="&lt;font style=&quot;font-size: 15px;&quot;&gt;192.168.1.0/24&lt;/font&gt;" style="rounded=1;whiteSpace=wrap;html=1;fillColor=none;strokeWidth=1;strokeColor=#4d27aa;glass=0;shadow=0;" parent="2uVUvkbUTynAuup2ZZRn-23" vertex="1">
          <mxGeometry x="19.5" y="40" width="160" height="40" as="geometry" />
        </mxCell>
        <mxCell id="2uVUvkbUTynAuup2ZZRn-24" value="외부 접근" style="points=[[0,0],[0.25,0],[0.5,0],[0.75,0],[1,0],[1,0.25],[1,0.5],[1,0.75],[1,1],[0.75,1],[0.5,1],[0.25,1],[0,1],[0,0.75],[0,0.5],[0,0.25]];outlineConnect=0;gradientColor=none;html=1;whiteSpace=wrap;fontSize=12;fontStyle=0;container=1;pointerEvents=0;collapsible=0;recursiveResize=0;shape=mxgraph.aws4.group;grIcon=mxgraph.aws4.group_security_group;grStroke=0;strokeColor=#248814;fillColor=#E9F3E6;verticalAlign=top;align=left;spacingLeft=30;fontColor=#248814;dashed=0;rounded=1;shadow=0;glass=0;sketch=0;strokeWidth=1;" parent="2uVUvkbUTynAuup2ZZRn-20" vertex="1">
          <mxGeometry x="280" y="280" width="200" height="201" as="geometry" />
        </mxCell>
        <mxCell id="2uVUvkbUTynAuup2ZZRn-28" value="&lt;font style=&quot;font-size: 15px;&quot;&gt;192.168.50.0/24&lt;/font&gt;" style="rounded=1;whiteSpace=wrap;html=1;fillColor=none;strokeWidth=1;strokeColor=#4d27aa;glass=0;shadow=0;" parent="2uVUvkbUTynAuup2ZZRn-24" vertex="1">
          <mxGeometry x="20.5" y="40" width="160" height="40" as="geometry" />
        </mxCell>
        <mxCell id="2uVUvkbUTynAuup2ZZRn-26" value="임직원, 서버 - VPN" style="points=[[0,0],[0.25,0],[0.5,0],[0.75,0],[1,0],[1,0.25],[1,0.5],[1,0.75],[1,1],[0.75,1],[0.5,1],[0.25,1],[0,1],[0,0.75],[0,0.5],[0,0.25]];outlineConnect=0;gradientColor=none;html=1;whiteSpace=wrap;fontSize=12;fontStyle=0;container=1;pointerEvents=0;collapsible=0;recursiveResize=0;shape=mxgraph.aws4.group;grIcon=mxgraph.aws4.group_security_group;grStroke=0;strokeColor=#147EBA;fillColor=#E6F2F8;verticalAlign=top;align=left;spacingLeft=30;fontColor=#147EBA;dashed=0;rounded=1;shadow=0;glass=0;sketch=0;strokeWidth=1;" parent="2uVUvkbUTynAuup2ZZRn-20" vertex="1">
          <mxGeometry x="280" y="39.5" width="201" height="200.5" as="geometry" />
        </mxCell>
        <mxCell id="2uVUvkbUTynAuup2ZZRn-27" value="&lt;font style=&quot;font-size: 15px;&quot;&gt;192.168.100.0/24&lt;/font&gt;" style="rounded=1;whiteSpace=wrap;html=1;fillColor=none;strokeWidth=1;strokeColor=#4d27aa;glass=0;shadow=0;" parent="2uVUvkbUTynAuup2ZZRn-26" vertex="1">
          <mxGeometry x="20.5" y="40.5" width="160" height="40" as="geometry" />
        </mxCell>
        <mxCell id="2uVUvkbUTynAuup2ZZRn-30" value="외부 접근 - VPN" style="points=[[0,0],[0.25,0],[0.5,0],[0.75,0],[1,0],[1,0.25],[1,0.5],[1,0.75],[1,1],[0.75,1],[0.5,1],[0.25,1],[0,1],[0,0.75],[0,0.5],[0,0.25]];outlineConnect=0;gradientColor=none;html=1;whiteSpace=wrap;fontSize=12;fontStyle=0;container=1;pointerEvents=0;collapsible=0;recursiveResize=0;shape=mxgraph.aws4.group;grIcon=mxgraph.aws4.group_security_group;grStroke=0;strokeColor=#248814;fillColor=#E9F3E6;verticalAlign=top;align=left;spacingLeft=30;fontColor=#248814;dashed=0;rounded=1;shadow=0;glass=0;sketch=0;strokeWidth=1;" parent="2uVUvkbUTynAuup2ZZRn-20" vertex="1">
          <mxGeometry x="520" y="280" width="200" height="201" as="geometry" />
        </mxCell>
        <mxCell id="2uVUvkbUTynAuup2ZZRn-31" value="&lt;font style=&quot;font-size: 15px;&quot;&gt;192.168.55.0/24&lt;/font&gt;" style="rounded=1;whiteSpace=wrap;html=1;fillColor=none;strokeWidth=1;strokeColor=#4d27aa;glass=0;shadow=0;" parent="2uVUvkbUTynAuup2ZZRn-30" vertex="1">
          <mxGeometry x="20.5" y="40" width="160" height="40" as="geometry" />
        </mxCell>
        <mxCell id="2uVUvkbUTynAuup2ZZRn-32" value="용산" style="points=[[0,0],[0.25,0],[0.5,0],[0.75,0],[1,0],[1,0.25],[1,0.5],[1,0.75],[1,1],[0.75,1],[0.5,1],[0.25,1],[0,1],[0,0.75],[0,0.5],[0,0.25]];outlineConnect=0;gradientColor=none;html=1;whiteSpace=wrap;fontSize=12;fontStyle=0;container=1;pointerEvents=0;collapsible=0;recursiveResize=0;shape=mxgraph.aws4.group;grIcon=mxgraph.aws4.group_vpc;strokeColor=#248814;fillColor=none;verticalAlign=top;align=left;spacingLeft=30;fontColor=#AAB7B8;dashed=0;rounded=1;shadow=0;glass=0;sketch=0;strokeWidth=1;" parent="1" vertex="1">
          <mxGeometry x="840" y="40" width="520" height="520" as="geometry" />
        </mxCell>
        <mxCell id="2uVUvkbUTynAuup2ZZRn-33" value="임직원, 서버" style="points=[[0,0],[0.25,0],[0.5,0],[0.75,0],[1,0],[1,0.25],[1,0.5],[1,0.75],[1,1],[0.75,1],[0.5,1],[0.25,1],[0,1],[0,0.75],[0,0.5],[0,0.25]];outlineConnect=0;gradientColor=none;html=1;whiteSpace=wrap;fontSize=12;fontStyle=0;container=1;pointerEvents=0;collapsible=0;recursiveResize=0;shape=mxgraph.aws4.group;grIcon=mxgraph.aws4.group_security_group;grStroke=0;strokeColor=#147EBA;fillColor=#E6F2F8;verticalAlign=top;align=left;spacingLeft=30;fontColor=#147EBA;dashed=0;rounded=1;shadow=0;glass=0;sketch=0;strokeWidth=1;" parent="2uVUvkbUTynAuup2ZZRn-32" vertex="1">
          <mxGeometry x="39" y="39.5" width="201" height="200.5" as="geometry" />
        </mxCell>
        <mxCell id="2uVUvkbUTynAuup2ZZRn-34" value="&lt;font style=&quot;font-size: 15px;&quot;&gt;192.168.10.0/24&lt;/font&gt;" style="rounded=1;whiteSpace=wrap;html=1;fillColor=none;strokeWidth=1;strokeColor=#4d27aa;glass=0;shadow=0;" parent="2uVUvkbUTynAuup2ZZRn-33" vertex="1">
          <mxGeometry x="20.5" y="40.5" width="160" height="40" as="geometry" />
        </mxCell>
        <mxCell id="2uVUvkbUTynAuup2ZZRn-35" value="방문자" style="points=[[0,0],[0.25,0],[0.5,0],[0.75,0],[1,0],[1,0.25],[1,0.5],[1,0.75],[1,1],[0.75,1],[0.5,1],[0.25,1],[0,1],[0,0.75],[0,0.5],[0,0.25]];outlineConnect=0;gradientColor=none;html=1;whiteSpace=wrap;fontSize=12;fontStyle=0;container=1;pointerEvents=0;collapsible=0;recursiveResize=0;shape=mxgraph.aws4.group;grIcon=mxgraph.aws4.group_security_group;grStroke=0;strokeColor=#248814;fillColor=#E9F3E6;verticalAlign=top;align=left;spacingLeft=30;fontColor=#248814;dashed=0;rounded=1;shadow=0;glass=0;sketch=0;strokeWidth=1;" parent="2uVUvkbUTynAuup2ZZRn-32" vertex="1">
          <mxGeometry x="40" y="280" width="200" height="201" as="geometry" />
        </mxCell>
        <mxCell id="2uVUvkbUTynAuup2ZZRn-36" value="&lt;font style=&quot;font-size: 15px;&quot;&gt;192.168.20.0/24&lt;/font&gt;" style="rounded=1;whiteSpace=wrap;html=1;fillColor=none;strokeWidth=1;strokeColor=#4d27aa;glass=0;shadow=0;" parent="2uVUvkbUTynAuup2ZZRn-35" vertex="1">
          <mxGeometry x="19.5" y="40" width="160" height="40" as="geometry" />
        </mxCell>
        <mxCell id="2uVUvkbUTynAuup2ZZRn-39" value="임직원, 서버 - VPN" style="points=[[0,0],[0.25,0],[0.5,0],[0.75,0],[1,0],[1,0.25],[1,0.5],[1,0.75],[1,1],[0.75,1],[0.5,1],[0.25,1],[0,1],[0,0.75],[0,0.5],[0,0.25]];outlineConnect=0;gradientColor=none;html=1;whiteSpace=wrap;fontSize=12;fontStyle=0;container=1;pointerEvents=0;collapsible=0;recursiveResize=0;shape=mxgraph.aws4.group;grIcon=mxgraph.aws4.group_security_group;grStroke=0;strokeColor=#147EBA;fillColor=#E6F2F8;verticalAlign=top;align=left;spacingLeft=30;fontColor=#147EBA;dashed=0;rounded=1;shadow=0;glass=0;sketch=0;strokeWidth=1;" parent="2uVUvkbUTynAuup2ZZRn-32" vertex="1">
          <mxGeometry x="280" y="39.5" width="201" height="200.5" as="geometry" />
        </mxCell>
        <mxCell id="2uVUvkbUTynAuup2ZZRn-40" value="&lt;font style=&quot;font-size: 15px;&quot;&gt;192.168.200.0/24&lt;/font&gt;" style="rounded=1;whiteSpace=wrap;html=1;fillColor=none;strokeWidth=1;strokeColor=#4d27aa;glass=0;shadow=0;" parent="2uVUvkbUTynAuup2ZZRn-39" vertex="1">
          <mxGeometry x="20.5" y="40.5" width="160" height="40" as="geometry" />
        </mxCell>
        <mxCell id="2uVUvkbUTynAuup2ZZRn-43" value="AWS" style="points=[[0,0],[0.25,0],[0.5,0],[0.75,0],[1,0],[1,0.25],[1,0.5],[1,0.75],[1,1],[0.75,1],[0.5,1],[0.25,1],[0,1],[0,0.75],[0,0.5],[0,0.25]];outlineConnect=0;gradientColor=none;html=1;whiteSpace=wrap;fontSize=12;fontStyle=0;container=1;pointerEvents=0;collapsible=0;recursiveResize=0;shape=mxgraph.aws4.group;grIcon=mxgraph.aws4.group_vpc;strokeColor=#248814;fillColor=none;verticalAlign=top;align=left;spacingLeft=30;fontColor=#AAB7B8;dashed=0;rounded=1;shadow=0;glass=0;sketch=0;strokeWidth=1;" parent="1" vertex="1">
          <mxGeometry x="40" y="600" width="520" height="320" as="geometry" />
        </mxCell>
        <mxCell id="2uVUvkbUTynAuup2ZZRn-44" value="Public subnet" style="points=[[0,0],[0.25,0],[0.5,0],[0.75,0],[1,0],[1,0.25],[1,0.5],[1,0.75],[1,1],[0.75,1],[0.5,1],[0.25,1],[0,1],[0,0.75],[0,0.5],[0,0.25]];outlineConnect=0;gradientColor=none;html=1;whiteSpace=wrap;fontSize=12;fontStyle=0;container=1;pointerEvents=0;collapsible=0;recursiveResize=0;shape=mxgraph.aws4.group;grIcon=mxgraph.aws4.group_security_group;grStroke=0;strokeColor=#147EBA;fillColor=#E6F2F8;verticalAlign=top;align=left;spacingLeft=30;fontColor=#147EBA;dashed=0;rounded=1;shadow=0;glass=0;sketch=0;strokeWidth=1;" parent="2uVUvkbUTynAuup2ZZRn-43" vertex="1">
          <mxGeometry x="39" y="39.5" width="201" height="240.5" as="geometry" />
        </mxCell>
        <mxCell id="2uVUvkbUTynAuup2ZZRn-45" value="&lt;font style=&quot;font-size: 15px;&quot;&gt;10.0.0.0/20&lt;/font&gt;" style="rounded=1;whiteSpace=wrap;html=1;fillColor=none;strokeWidth=1;strokeColor=#4d27aa;glass=0;shadow=0;" parent="2uVUvkbUTynAuup2ZZRn-44" vertex="1">
          <mxGeometry x="20.5" y="40.5" width="160" height="40" as="geometry" />
        </mxCell>
        <mxCell id="2uVUvkbUTynAuup2ZZRn-54" value="&lt;font style=&quot;font-size: 15px;&quot;&gt;10.0.16.0/20&lt;/font&gt;" style="rounded=1;whiteSpace=wrap;html=1;fillColor=none;strokeWidth=1;strokeColor=#4d27aa;glass=0;shadow=0;" parent="2uVUvkbUTynAuup2ZZRn-44" vertex="1">
          <mxGeometry x="21" y="90.5" width="160" height="40" as="geometry" />
        </mxCell>
        <mxCell id="2uVUvkbUTynAuup2ZZRn-55" value="&lt;font style=&quot;font-size: 15px;&quot;&gt;10.0.32.0/20&lt;/font&gt;" style="rounded=1;whiteSpace=wrap;html=1;fillColor=none;strokeWidth=1;strokeColor=#4d27aa;glass=0;shadow=0;" parent="2uVUvkbUTynAuup2ZZRn-44" vertex="1">
          <mxGeometry x="20.5" y="140.5" width="160" height="40" as="geometry" />
        </mxCell>
        <mxCell id="2uVUvkbUTynAuup2ZZRn-46" value="Private subnet" style="points=[[0,0],[0.25,0],[0.5,0],[0.75,0],[1,0],[1,0.25],[1,0.5],[1,0.75],[1,1],[0.75,1],[0.5,1],[0.25,1],[0,1],[0,0.75],[0,0.5],[0,0.25]];outlineConnect=0;gradientColor=none;html=1;whiteSpace=wrap;fontSize=12;fontStyle=0;container=1;pointerEvents=0;collapsible=0;recursiveResize=0;shape=mxgraph.aws4.group;grIcon=mxgraph.aws4.group_security_group;grStroke=0;strokeColor=#248814;fillColor=#E9F3E6;verticalAlign=top;align=left;spacingLeft=30;fontColor=#248814;dashed=0;rounded=1;shadow=0;glass=0;sketch=0;strokeWidth=1;" parent="2uVUvkbUTynAuup2ZZRn-43" vertex="1">
          <mxGeometry x="280" y="39.5" width="200" height="240.5" as="geometry" />
        </mxCell>
        <mxCell id="2uVUvkbUTynAuup2ZZRn-47" value="&lt;font style=&quot;font-size: 15px;&quot;&gt;10.0.128.0/20&lt;/font&gt;" style="rounded=1;whiteSpace=wrap;html=1;fillColor=none;strokeWidth=1;strokeColor=#4d27aa;glass=0;shadow=0;" parent="2uVUvkbUTynAuup2ZZRn-46" vertex="1">
          <mxGeometry x="19.5" y="40" width="160" height="40" as="geometry" />
        </mxCell>
        <mxCell id="2uVUvkbUTynAuup2ZZRn-57" value="&lt;font style=&quot;font-size: 15px;&quot;&gt;10.0.144.0/20&lt;/font&gt;" style="rounded=1;whiteSpace=wrap;html=1;fillColor=none;strokeWidth=1;strokeColor=#4d27aa;glass=0;shadow=0;" parent="2uVUvkbUTynAuup2ZZRn-46" vertex="1">
          <mxGeometry x="19.5" y="90.5" width="160" height="40" as="geometry" />
        </mxCell>
        <mxCell id="2uVUvkbUTynAuup2ZZRn-58" value="&lt;font style=&quot;font-size: 15px;&quot;&gt;10.0.160.0/20&lt;/font&gt;" style="rounded=1;whiteSpace=wrap;html=1;fillColor=none;strokeWidth=1;strokeColor=#4d27aa;glass=0;shadow=0;" parent="2uVUvkbUTynAuup2ZZRn-46" vertex="1">
          <mxGeometry x="20" y="140.5" width="160" height="40" as="geometry" />
        </mxCell>
        <mxCell id="2uVUvkbUTynAuup2ZZRn-59" value="&lt;font style=&quot;font-size: 15px;&quot;&gt;10.0.176.0/20&lt;/font&gt;" style="rounded=1;whiteSpace=wrap;html=1;fillColor=none;strokeWidth=1;strokeColor=#4d27aa;glass=0;shadow=0;" parent="2uVUvkbUTynAuup2ZZRn-46" vertex="1">
          <mxGeometry x="19.5" y="190.5" width="160" height="40" as="geometry" />
        </mxCell>
        <mxCell id="2uVUvkbUTynAuup2ZZRn-56" value="&lt;font style=&quot;font-size: 15px;&quot;&gt;10.0.48.0/20&lt;/font&gt;" style="rounded=1;whiteSpace=wrap;html=1;fillColor=none;strokeWidth=1;strokeColor=#4d27aa;glass=0;shadow=0;" parent="2uVUvkbUTynAuup2ZZRn-43" vertex="1">
          <mxGeometry x="59.5" y="230" width="160" height="40" as="geometry" />
        </mxCell>
        <mxCell id="2uVUvkbUTynAuup2ZZRn-60" value="다우 IDC" style="points=[[0,0],[0.25,0],[0.5,0],[0.75,0],[1,0],[1,0.25],[1,0.5],[1,0.75],[1,1],[0.75,1],[0.5,1],[0.25,1],[0,1],[0,0.75],[0,0.5],[0,0.25]];outlineConnect=0;gradientColor=none;html=1;whiteSpace=wrap;fontSize=12;fontStyle=0;container=1;pointerEvents=0;collapsible=0;recursiveResize=0;shape=mxgraph.aws4.group;grIcon=mxgraph.aws4.group_vpc;strokeColor=#248814;fillColor=none;verticalAlign=top;align=left;spacingLeft=30;fontColor=#AAB7B8;dashed=0;rounded=1;shadow=0;glass=0;sketch=0;strokeWidth=1;" parent="1" vertex="1">
          <mxGeometry x="600" y="600" width="520" height="320" as="geometry" />
        </mxCell>
        <mxCell id="2uVUvkbUTynAuup2ZZRn-61" value="서버" style="points=[[0,0],[0.25,0],[0.5,0],[0.75,0],[1,0],[1,0.25],[1,0.5],[1,0.75],[1,1],[0.75,1],[0.5,1],[0.25,1],[0,1],[0,0.75],[0,0.5],[0,0.25]];outlineConnect=0;gradientColor=none;html=1;whiteSpace=wrap;fontSize=12;fontStyle=0;container=1;pointerEvents=0;collapsible=0;recursiveResize=0;shape=mxgraph.aws4.group;grIcon=mxgraph.aws4.group_security_group;grStroke=0;strokeColor=#147EBA;fillColor=#E6F2F8;verticalAlign=top;align=left;spacingLeft=30;fontColor=#147EBA;dashed=0;rounded=1;shadow=0;glass=0;sketch=0;strokeWidth=1;" parent="2uVUvkbUTynAuup2ZZRn-60" vertex="1">
          <mxGeometry x="39" y="39.5" width="201" height="200.5" as="geometry" />
        </mxCell>
        <mxCell id="2uVUvkbUTynAuup2ZZRn-62" value="&lt;font style=&quot;font-size: 15px;&quot;&gt;192.168.30.0/24&lt;/font&gt;" style="rounded=1;whiteSpace=wrap;html=1;fillColor=none;strokeWidth=1;strokeColor=#4d27aa;glass=0;shadow=0;" parent="2uVUvkbUTynAuup2ZZRn-61" vertex="1">
          <mxGeometry x="20.5" y="40.5" width="160" height="40" as="geometry" />
        </mxCell>
        <mxCell id="2uVUvkbUTynAuup2ZZRn-65" value="VPN" style="points=[[0,0],[0.25,0],[0.5,0],[0.75,0],[1,0],[1,0.25],[1,0.5],[1,0.75],[1,1],[0.75,1],[0.5,1],[0.25,1],[0,1],[0,0.75],[0,0.5],[0,0.25]];outlineConnect=0;gradientColor=none;html=1;whiteSpace=wrap;fontSize=12;fontStyle=0;container=1;pointerEvents=0;collapsible=0;recursiveResize=0;shape=mxgraph.aws4.group;grIcon=mxgraph.aws4.group_security_group;grStroke=0;strokeColor=#248814;fillColor=#E9F3E6;verticalAlign=top;align=left;spacingLeft=30;fontColor=#248814;dashed=0;rounded=1;shadow=0;glass=0;sketch=0;strokeWidth=1;" parent="2uVUvkbUTynAuup2ZZRn-60" vertex="1">
          <mxGeometry x="280" y="39.5" width="200" height="200.5" as="geometry" />
        </mxCell>
        <mxCell id="2uVUvkbUTynAuup2ZZRn-66" value="&lt;font style=&quot;font-size: 15px;&quot;&gt;192.168.254.0/24&lt;/font&gt;" style="rounded=1;whiteSpace=wrap;html=1;fillColor=none;strokeWidth=1;strokeColor=#4d27aa;glass=0;shadow=0;" parent="2uVUvkbUTynAuup2ZZRn-65" vertex="1">
          <mxGeometry x="19.5" y="40" width="160" height="40" as="geometry" />
        </mxCell>
      </root>
    </mxGraphModel>
  </diagram>
  <diagram id="4KtME8uRCzeN-5jXc_AK" name="To-Be">
    <mxGraphModel dx="2183" dy="2344" grid="1" gridSize="10" guides="1" tooltips="1" connect="1" arrows="1" fold="1" page="1" pageScale="1" pageWidth="827" pageHeight="1169" math="0" shadow="0">
      <root>
        <mxCell id="0" />
        <mxCell id="1" parent="0" />
        <mxCell id="WKDZx0J2jFqslIZiv7EB-1" value="휴런" style="points=[[0,0],[0.25,0],[0.5,0],[0.75,0],[1,0],[1,0.25],[1,0.5],[1,0.75],[1,1],[0.75,1],[0.5,1],[0.25,1],[0,1],[0,0.75],[0,0.5],[0,0.25]];outlineConnect=0;gradientColor=none;html=1;whiteSpace=wrap;fontSize=12;fontStyle=0;container=1;pointerEvents=0;collapsible=0;recursiveResize=0;shape=mxgraph.aws4.group;grIcon=mxgraph.aws4.group_vpc;strokeColor=#248814;fillColor=none;verticalAlign=top;align=left;spacingLeft=30;fontColor=#AAB7B8;dashed=0;rounded=1;shadow=0;glass=0;sketch=0;strokeWidth=1;" vertex="1" parent="1">
          <mxGeometry x="40" y="40" width="1530" height="1400" as="geometry" />
        </mxCell>
        <mxCell id="WKDZx0J2jFqslIZiv7EB-2" value="임직원, 서버" style="points=[[0,0],[0.25,0],[0.5,0],[0.75,0],[1,0],[1,0.25],[1,0.5],[1,0.75],[1,1],[0.75,1],[0.5,1],[0.25,1],[0,1],[0,0.75],[0,0.5],[0,0.25]];outlineConnect=0;gradientColor=none;html=1;whiteSpace=wrap;fontSize=12;fontStyle=0;container=1;pointerEvents=0;collapsible=0;recursiveResize=0;shape=mxgraph.aws4.group;grIcon=mxgraph.aws4.group_security_group;grStroke=0;strokeColor=#147EBA;fillColor=#E6F2F8;verticalAlign=top;align=left;spacingLeft=30;fontColor=#147EBA;dashed=0;rounded=1;shadow=0;glass=0;sketch=0;strokeWidth=1;" vertex="1" parent="WKDZx0J2jFqslIZiv7EB-1">
          <mxGeometry x="39" y="39.5" width="201" height="200.5" as="geometry" />
        </mxCell>
        <mxCell id="WKDZx0J2jFqslIZiv7EB-3" value="&lt;font style=&quot;font-size: 15px;&quot;&gt;192.168.0.0/24&lt;/font&gt;" style="rounded=1;whiteSpace=wrap;html=1;fillColor=none;strokeWidth=1;strokeColor=#4d27aa;glass=0;shadow=0;" vertex="1" parent="WKDZx0J2jFqslIZiv7EB-2">
          <mxGeometry x="20.5" y="40.5" width="160" height="40" as="geometry" />
        </mxCell>
        <mxCell id="WKDZx0J2jFqslIZiv7EB-4" value="방문자" style="points=[[0,0],[0.25,0],[0.5,0],[0.75,0],[1,0],[1,0.25],[1,0.5],[1,0.75],[1,1],[0.75,1],[0.5,1],[0.25,1],[0,1],[0,0.75],[0,0.5],[0,0.25]];outlineConnect=0;gradientColor=none;html=1;whiteSpace=wrap;fontSize=12;fontStyle=0;container=1;pointerEvents=0;collapsible=0;recursiveResize=0;shape=mxgraph.aws4.group;grIcon=mxgraph.aws4.group_security_group;grStroke=0;strokeColor=#248814;fillColor=#E9F3E6;verticalAlign=top;align=left;spacingLeft=30;fontColor=#248814;dashed=0;rounded=1;shadow=0;glass=0;sketch=0;strokeWidth=1;" vertex="1" parent="WKDZx0J2jFqslIZiv7EB-1">
          <mxGeometry x="40" y="280" width="200" height="201" as="geometry" />
        </mxCell>
        <mxCell id="WKDZx0J2jFqslIZiv7EB-5" value="&lt;font style=&quot;font-size: 15px;&quot;&gt;192.168.1.0/24&lt;/font&gt;" style="rounded=1;whiteSpace=wrap;html=1;fillColor=none;strokeWidth=1;strokeColor=#4d27aa;glass=0;shadow=0;" vertex="1" parent="WKDZx0J2jFqslIZiv7EB-4">
          <mxGeometry x="19.5" y="40" width="160" height="40" as="geometry" />
        </mxCell>
        <mxCell id="WKDZx0J2jFqslIZiv7EB-6" value="외부 접근" style="points=[[0,0],[0.25,0],[0.5,0],[0.75,0],[1,0],[1,0.25],[1,0.5],[1,0.75],[1,1],[0.75,1],[0.5,1],[0.25,1],[0,1],[0,0.75],[0,0.5],[0,0.25]];outlineConnect=0;gradientColor=none;html=1;whiteSpace=wrap;fontSize=12;fontStyle=0;container=1;pointerEvents=0;collapsible=0;recursiveResize=0;shape=mxgraph.aws4.group;grIcon=mxgraph.aws4.group_security_group;grStroke=0;strokeColor=#248814;fillColor=#E9F3E6;verticalAlign=top;align=left;spacingLeft=30;fontColor=#248814;dashed=0;rounded=1;shadow=0;glass=0;sketch=0;strokeWidth=1;" vertex="1" parent="WKDZx0J2jFqslIZiv7EB-1">
          <mxGeometry x="280" y="280" width="200" height="201" as="geometry" />
        </mxCell>
        <mxCell id="WKDZx0J2jFqslIZiv7EB-7" value="&lt;font style=&quot;font-size: 15px;&quot;&gt;192.168.50.0/24&lt;/font&gt;" style="rounded=1;whiteSpace=wrap;html=1;fillColor=none;strokeWidth=1;strokeColor=#4d27aa;glass=0;shadow=0;" vertex="1" parent="WKDZx0J2jFqslIZiv7EB-6">
          <mxGeometry x="20.5" y="40" width="160" height="40" as="geometry" />
        </mxCell>
        <mxCell id="WKDZx0J2jFqslIZiv7EB-8" value="임직원, 서버 - VPN" style="points=[[0,0],[0.25,0],[0.5,0],[0.75,0],[1,0],[1,0.25],[1,0.5],[1,0.75],[1,1],[0.75,1],[0.5,1],[0.25,1],[0,1],[0,0.75],[0,0.5],[0,0.25]];outlineConnect=0;gradientColor=none;html=1;whiteSpace=wrap;fontSize=12;fontStyle=0;container=1;pointerEvents=0;collapsible=0;recursiveResize=0;shape=mxgraph.aws4.group;grIcon=mxgraph.aws4.group_security_group;grStroke=0;strokeColor=#147EBA;fillColor=#E6F2F8;verticalAlign=top;align=left;spacingLeft=30;fontColor=#147EBA;dashed=0;rounded=1;shadow=0;glass=0;sketch=0;strokeWidth=1;" vertex="1" parent="WKDZx0J2jFqslIZiv7EB-1">
          <mxGeometry x="280" y="39.5" width="201" height="200.5" as="geometry" />
        </mxCell>
        <mxCell id="WKDZx0J2jFqslIZiv7EB-9" value="&lt;font style=&quot;font-size: 15px;&quot;&gt;192.168.100.0/24&lt;/font&gt;" style="rounded=1;whiteSpace=wrap;html=1;fillColor=none;strokeWidth=1;strokeColor=#4d27aa;glass=0;shadow=0;" vertex="1" parent="WKDZx0J2jFqslIZiv7EB-8">
          <mxGeometry x="20.5" y="40.5" width="160" height="40" as="geometry" />
        </mxCell>
        <mxCell id="WKDZx0J2jFqslIZiv7EB-10" value="외부 접근 - VPN" style="points=[[0,0],[0.25,0],[0.5,0],[0.75,0],[1,0],[1,0.25],[1,0.5],[1,0.75],[1,1],[0.75,1],[0.5,1],[0.25,1],[0,1],[0,0.75],[0,0.5],[0,0.25]];outlineConnect=0;gradientColor=none;html=1;whiteSpace=wrap;fontSize=12;fontStyle=0;container=1;pointerEvents=0;collapsible=0;recursiveResize=0;shape=mxgraph.aws4.group;grIcon=mxgraph.aws4.group_security_group;grStroke=0;strokeColor=#248814;fillColor=#E9F3E6;verticalAlign=top;align=left;spacingLeft=30;fontColor=#248814;dashed=0;rounded=1;shadow=0;glass=0;sketch=0;strokeWidth=1;" vertex="1" parent="WKDZx0J2jFqslIZiv7EB-1">
          <mxGeometry x="520" y="280" width="200" height="201" as="geometry" />
        </mxCell>
        <mxCell id="WKDZx0J2jFqslIZiv7EB-11" value="&lt;font style=&quot;font-size: 15px;&quot;&gt;192.168.55.0/24&lt;/font&gt;" style="rounded=1;whiteSpace=wrap;html=1;fillColor=none;strokeWidth=1;strokeColor=#4d27aa;glass=0;shadow=0;" vertex="1" parent="WKDZx0J2jFqslIZiv7EB-10">
          <mxGeometry x="20.5" y="40" width="160" height="40" as="geometry" />
        </mxCell>
        <mxCell id="neJseO_to8Oxgh6lxZQH-9" value="VPN" style="points=[[0,0],[0.25,0],[0.5,0],[0.75,0],[1,0],[1,0.25],[1,0.5],[1,0.75],[1,1],[0.75,1],[0.5,1],[0.25,1],[0,1],[0,0.75],[0,0.5],[0,0.25]];outlineConnect=0;gradientColor=none;html=1;whiteSpace=wrap;fontSize=12;fontStyle=0;container=1;pointerEvents=0;collapsible=0;recursiveResize=0;shape=mxgraph.aws4.group;grIcon=mxgraph.aws4.group_security_group;grStroke=0;strokeColor=#147EBA;fillColor=#E6F2F8;verticalAlign=top;align=left;spacingLeft=30;fontColor=#147EBA;dashed=0;rounded=1;shadow=0;glass=0;sketch=0;strokeWidth=1;" parent="WKDZx0J2jFqslIZiv7EB-1" vertex="1">
          <mxGeometry x="1030" y="30" width="201" height="160.5" as="geometry" />
        </mxCell>
        <mxCell id="neJseO_to8Oxgh6lxZQH-10" value="&lt;font style=&quot;font-size: 15px;&quot;&gt;192.168.20.0/24&lt;/font&gt;" style="rounded=1;whiteSpace=wrap;html=1;fillColor=none;strokeWidth=1;strokeColor=#4d27aa;glass=0;shadow=0;" parent="neJseO_to8Oxgh6lxZQH-9" vertex="1">
          <mxGeometry x="20.5" y="40.5" width="160" height="40" as="geometry" />
        </mxCell>
        <mxCell id="neJseO_to8Oxgh6lxZQH-13" value="&lt;font style=&quot;font-size: 15px;&quot;&gt;192.168.21.0/24&lt;/font&gt;" style="rounded=1;whiteSpace=wrap;html=1;fillColor=none;strokeWidth=1;strokeColor=#4d27aa;glass=0;shadow=0;" parent="neJseO_to8Oxgh6lxZQH-9" vertex="1">
          <mxGeometry x="20.5" y="90.5" width="160" height="40" as="geometry" />
        </mxCell>
        <mxCell id="NTJq8n4EPSYoU_xXzW_G-19" value="AWS존" style="points=[[0,0],[0.25,0],[0.5,0],[0.75,0],[1,0],[1,0.25],[1,0.5],[1,0.75],[1,1],[0.75,1],[0.5,1],[0.25,1],[0,1],[0,0.75],[0,0.5],[0,0.25]];outlineConnect=0;gradientColor=none;html=1;whiteSpace=wrap;fontSize=12;fontStyle=0;container=1;pointerEvents=0;collapsible=0;recursiveResize=0;shape=mxgraph.aws4.group;grIcon=mxgraph.aws4.group_vpc;strokeColor=#248814;fillColor=none;verticalAlign=top;align=left;spacingLeft=30;fontColor=#AAB7B8;dashed=0;rounded=1;shadow=0;glass=0;sketch=0;strokeWidth=1;" parent="1" vertex="1">
          <mxGeometry x="600" y="960" width="520" height="320" as="geometry" />
        </mxCell>
        <mxCell id="NTJq8n4EPSYoU_xXzW_G-20" value="Public subnet" style="points=[[0,0],[0.25,0],[0.5,0],[0.75,0],[1,0],[1,0.25],[1,0.5],[1,0.75],[1,1],[0.75,1],[0.5,1],[0.25,1],[0,1],[0,0.75],[0,0.5],[0,0.25]];outlineConnect=0;gradientColor=none;html=1;whiteSpace=wrap;fontSize=12;fontStyle=0;container=1;pointerEvents=0;collapsible=0;recursiveResize=0;shape=mxgraph.aws4.group;grIcon=mxgraph.aws4.group_security_group;grStroke=0;strokeColor=#147EBA;fillColor=#E6F2F8;verticalAlign=top;align=left;spacingLeft=30;fontColor=#147EBA;dashed=0;rounded=1;shadow=0;glass=0;sketch=0;strokeWidth=1;" parent="NTJq8n4EPSYoU_xXzW_G-19" vertex="1">
          <mxGeometry x="39" y="39.5" width="201" height="240.5" as="geometry" />
        </mxCell>
        <mxCell id="NTJq8n4EPSYoU_xXzW_G-21" value="&lt;font style=&quot;font-size: 15px;&quot;&gt;10.0.0.0/20&lt;/font&gt;" style="rounded=1;whiteSpace=wrap;html=1;fillColor=none;strokeWidth=1;strokeColor=#4d27aa;glass=0;shadow=0;" parent="NTJq8n4EPSYoU_xXzW_G-20" vertex="1">
          <mxGeometry x="20.5" y="40.5" width="160" height="40" as="geometry" />
        </mxCell>
        <mxCell id="NTJq8n4EPSYoU_xXzW_G-22" value="&lt;font style=&quot;font-size: 15px;&quot;&gt;10.0.16.0/20&lt;/font&gt;" style="rounded=1;whiteSpace=wrap;html=1;fillColor=none;strokeWidth=1;strokeColor=#4d27aa;glass=0;shadow=0;" parent="NTJq8n4EPSYoU_xXzW_G-20" vertex="1">
          <mxGeometry x="21" y="90.5" width="160" height="40" as="geometry" />
        </mxCell>
        <mxCell id="NTJq8n4EPSYoU_xXzW_G-23" value="&lt;font style=&quot;font-size: 15px;&quot;&gt;10.0.32.0/20&lt;/font&gt;" style="rounded=1;whiteSpace=wrap;html=1;fillColor=none;strokeWidth=1;strokeColor=#4d27aa;glass=0;shadow=0;" parent="NTJq8n4EPSYoU_xXzW_G-20" vertex="1">
          <mxGeometry x="20.5" y="140.5" width="160" height="40" as="geometry" />
        </mxCell>
        <mxCell id="NTJq8n4EPSYoU_xXzW_G-29" value="&lt;font style=&quot;font-size: 15px;&quot;&gt;10.0.48.0/20&lt;/font&gt;" style="rounded=1;whiteSpace=wrap;html=1;fillColor=none;strokeWidth=1;strokeColor=#4d27aa;glass=0;shadow=0;" parent="NTJq8n4EPSYoU_xXzW_G-20" vertex="1">
          <mxGeometry x="20.5" y="190.5" width="160" height="40" as="geometry" />
        </mxCell>
        <mxCell id="NTJq8n4EPSYoU_xXzW_G-24" value="Private subnet" style="points=[[0,0],[0.25,0],[0.5,0],[0.75,0],[1,0],[1,0.25],[1,0.5],[1,0.75],[1,1],[0.75,1],[0.5,1],[0.25,1],[0,1],[0,0.75],[0,0.5],[0,0.25]];outlineConnect=0;gradientColor=none;html=1;whiteSpace=wrap;fontSize=12;fontStyle=0;container=1;pointerEvents=0;collapsible=0;recursiveResize=0;shape=mxgraph.aws4.group;grIcon=mxgraph.aws4.group_security_group;grStroke=0;strokeColor=#248814;fillColor=#E9F3E6;verticalAlign=top;align=left;spacingLeft=30;fontColor=#248814;dashed=0;rounded=1;shadow=0;glass=0;sketch=0;strokeWidth=1;" parent="NTJq8n4EPSYoU_xXzW_G-19" vertex="1">
          <mxGeometry x="280" y="39.5" width="200" height="240.5" as="geometry" />
        </mxCell>
        <mxCell id="NTJq8n4EPSYoU_xXzW_G-25" value="&lt;font style=&quot;font-size: 15px;&quot;&gt;10.0.128.0/20&lt;/font&gt;" style="rounded=1;whiteSpace=wrap;html=1;fillColor=none;strokeWidth=1;strokeColor=#4d27aa;glass=0;shadow=0;" parent="NTJq8n4EPSYoU_xXzW_G-24" vertex="1">
          <mxGeometry x="19.5" y="40" width="160" height="40" as="geometry" />
        </mxCell>
        <mxCell id="NTJq8n4EPSYoU_xXzW_G-26" value="&lt;font style=&quot;font-size: 15px;&quot;&gt;10.0.144.0/20&lt;/font&gt;" style="rounded=1;whiteSpace=wrap;html=1;fillColor=none;strokeWidth=1;strokeColor=#4d27aa;glass=0;shadow=0;" parent="NTJq8n4EPSYoU_xXzW_G-24" vertex="1">
          <mxGeometry x="19.5" y="90.5" width="160" height="40" as="geometry" />
        </mxCell>
        <mxCell id="NTJq8n4EPSYoU_xXzW_G-27" value="&lt;font style=&quot;font-size: 15px;&quot;&gt;10.0.160.0/20&lt;/font&gt;" style="rounded=1;whiteSpace=wrap;html=1;fillColor=none;strokeWidth=1;strokeColor=#4d27aa;glass=0;shadow=0;" parent="NTJq8n4EPSYoU_xXzW_G-24" vertex="1">
          <mxGeometry x="20" y="140.5" width="160" height="40" as="geometry" />
        </mxCell>
        <mxCell id="NTJq8n4EPSYoU_xXzW_G-28" value="&lt;font style=&quot;font-size: 15px;&quot;&gt;10.0.176.0/20&lt;/font&gt;" style="rounded=1;whiteSpace=wrap;html=1;fillColor=none;strokeWidth=1;strokeColor=#4d27aa;glass=0;shadow=0;" parent="NTJq8n4EPSYoU_xXzW_G-24" vertex="1">
          <mxGeometry x="19.5" y="190.5" width="160" height="40" as="geometry" />
        </mxCell>
        <mxCell id="NTJq8n4EPSYoU_xXzW_G-12" value="VPN - 외부 트레픽존" style="points=[[0,0],[0.25,0],[0.5,0],[0.75,0],[1,0],[1,0.25],[1,0.5],[1,0.75],[1,1],[0.75,1],[0.5,1],[0.25,1],[0,1],[0,0.75],[0,0.5],[0,0.25]];outlineConnect=0;gradientColor=none;html=1;whiteSpace=wrap;fontSize=12;fontStyle=0;container=1;pointerEvents=0;collapsible=0;recursiveResize=0;shape=mxgraph.aws4.group;grIcon=mxgraph.aws4.group_vpc;strokeColor=#248814;fillColor=none;verticalAlign=top;align=left;spacingLeft=30;fontColor=#AAB7B8;dashed=0;rounded=1;shadow=0;glass=0;sketch=0;strokeWidth=1;" parent="1" vertex="1">
          <mxGeometry x="1200" y="960" width="291" height="360" as="geometry" />
        </mxCell>
        <mxCell id="NTJq8n4EPSYoU_xXzW_G-13" value="데모" style="points=[[0,0],[0.25,0],[0.5,0],[0.75,0],[1,0],[1,0.25],[1,0.5],[1,0.75],[1,1],[0.75,1],[0.5,1],[0.25,1],[0,1],[0,0.75],[0,0.5],[0,0.25]];outlineConnect=0;gradientColor=none;html=1;whiteSpace=wrap;fontSize=12;fontStyle=0;container=1;pointerEvents=0;collapsible=0;recursiveResize=0;shape=mxgraph.aws4.group;grIcon=mxgraph.aws4.group_security_group;grStroke=0;strokeColor=#147EBA;fillColor=#E6F2F8;verticalAlign=top;align=left;spacingLeft=30;fontColor=#147EBA;dashed=0;rounded=1;shadow=0;glass=0;sketch=0;strokeWidth=1;" parent="NTJq8n4EPSYoU_xXzW_G-12" vertex="1">
          <mxGeometry x="39" y="39.5" width="201" height="120.5" as="geometry" />
        </mxCell>
        <mxCell id="NTJq8n4EPSYoU_xXzW_G-14" value="&lt;font style=&quot;font-size: 15px;&quot;&gt;192.168.50.0/24&lt;/font&gt;" style="rounded=1;whiteSpace=wrap;html=1;fillColor=none;strokeWidth=1;strokeColor=#4d27aa;glass=0;shadow=0;" parent="NTJq8n4EPSYoU_xXzW_G-13" vertex="1">
          <mxGeometry x="20.5" y="40.5" width="160" height="40" as="geometry" />
        </mxCell>
        <mxCell id="LbLBr8xy3YgAkBmWXg0m-1" value="VPN" style="points=[[0,0],[0.25,0],[0.5,0],[0.75,0],[1,0],[1,0.25],[1,0.5],[1,0.75],[1,1],[0.75,1],[0.5,1],[0.25,1],[0,1],[0,0.75],[0,0.5],[0,0.25]];outlineConnect=0;gradientColor=none;html=1;whiteSpace=wrap;fontSize=12;fontStyle=0;container=1;pointerEvents=0;collapsible=0;recursiveResize=0;shape=mxgraph.aws4.group;grIcon=mxgraph.aws4.group_security_group;grStroke=0;strokeColor=#147EBA;fillColor=#E6F2F8;verticalAlign=top;align=left;spacingLeft=30;fontColor=#147EBA;dashed=0;rounded=1;shadow=0;glass=0;sketch=0;strokeWidth=1;" parent="NTJq8n4EPSYoU_xXzW_G-12" vertex="1">
          <mxGeometry x="40" y="199.5" width="201" height="120.5" as="geometry" />
        </mxCell>
        <mxCell id="LbLBr8xy3YgAkBmWXg0m-2" value="&lt;font style=&quot;font-size: 15px;&quot;&gt;192.168.59.0/24&lt;/font&gt;" style="rounded=1;whiteSpace=wrap;html=1;fillColor=none;strokeWidth=1;strokeColor=#4d27aa;glass=0;shadow=0;" parent="LbLBr8xy3YgAkBmWXg0m-1" vertex="1">
          <mxGeometry x="20.5" y="40.5" width="160" height="40" as="geometry" />
        </mxCell>
        <mxCell id="NTJq8n4EPSYoU_xXzW_G-30" value="다우 IDC" style="points=[[0,0],[0.25,0],[0.5,0],[0.75,0],[1,0],[1,0.25],[1,0.5],[1,0.75],[1,1],[0.75,1],[0.5,1],[0.25,1],[0,1],[0,0.75],[0,0.5],[0,0.25]];outlineConnect=0;gradientColor=none;html=1;whiteSpace=wrap;fontSize=12;fontStyle=0;container=1;pointerEvents=0;collapsible=0;recursiveResize=0;shape=mxgraph.aws4.group;grIcon=mxgraph.aws4.group_vpc;strokeColor=#248814;fillColor=none;verticalAlign=top;align=left;spacingLeft=30;fontColor=#AAB7B8;dashed=0;rounded=1;shadow=0;glass=0;sketch=0;strokeWidth=1;" parent="1" vertex="1">
          <mxGeometry x="470" y="1410" width="280" height="200" as="geometry" />
        </mxCell>
        <mxCell id="NTJq8n4EPSYoU_xXzW_G-31" value="서버" style="points=[[0,0],[0.25,0],[0.5,0],[0.75,0],[1,0],[1,0.25],[1,0.5],[1,0.75],[1,1],[0.75,1],[0.5,1],[0.25,1],[0,1],[0,0.75],[0,0.5],[0,0.25]];outlineConnect=0;gradientColor=none;html=1;whiteSpace=wrap;fontSize=12;fontStyle=0;container=1;pointerEvents=0;collapsible=0;recursiveResize=0;shape=mxgraph.aws4.group;grIcon=mxgraph.aws4.group_security_group;grStroke=0;strokeColor=#147EBA;fillColor=#E6F2F8;verticalAlign=top;align=left;spacingLeft=30;fontColor=#147EBA;dashed=0;rounded=1;shadow=0;glass=0;sketch=0;strokeWidth=1;" parent="NTJq8n4EPSYoU_xXzW_G-30" vertex="1">
          <mxGeometry x="39" y="39.5" width="201" height="120.5" as="geometry" />
        </mxCell>
        <mxCell id="NTJq8n4EPSYoU_xXzW_G-32" value="&lt;font style=&quot;font-size: 15px;&quot;&gt;192.168.60.0/24&lt;/font&gt;" style="rounded=1;whiteSpace=wrap;html=1;fillColor=none;strokeWidth=1;strokeColor=#4d27aa;glass=0;shadow=0;" parent="NTJq8n4EPSYoU_xXzW_G-31" vertex="1">
          <mxGeometry x="20.5" y="40.5" width="160" height="40" as="geometry" />
        </mxCell>
        <mxCell id="neJseO_to8Oxgh6lxZQH-15" value="VPN - 서버존" style="points=[[0,0],[0.25,0],[0.5,0],[0.75,0],[1,0],[1,0.25],[1,0.5],[1,0.75],[1,1],[0.75,1],[0.5,1],[0.25,1],[0,1],[0,0.75],[0,0.5],[0,0.25]];outlineConnect=0;gradientColor=none;html=1;whiteSpace=wrap;fontSize=12;fontStyle=0;container=1;pointerEvents=0;collapsible=0;recursiveResize=0;shape=mxgraph.aws4.group;grIcon=mxgraph.aws4.group_vpc;strokeColor=#248814;fillColor=none;verticalAlign=top;align=left;spacingLeft=30;fontColor=#AAB7B8;dashed=0;rounded=1;shadow=0;glass=0;sketch=0;strokeWidth=1;" parent="1" vertex="1">
          <mxGeometry x="40" y="960" width="520" height="280" as="geometry" />
        </mxCell>
        <mxCell id="neJseO_to8Oxgh6lxZQH-34" value="유틸 서버" style="points=[[0,0],[0.25,0],[0.5,0],[0.75,0],[1,0],[1,0.25],[1,0.5],[1,0.75],[1,1],[0.75,1],[0.5,1],[0.25,1],[0,1],[0,0.75],[0,0.5],[0,0.25]];outlineConnect=0;gradientColor=none;html=1;whiteSpace=wrap;fontSize=12;fontStyle=0;container=1;pointerEvents=0;collapsible=0;recursiveResize=0;shape=mxgraph.aws4.group;grIcon=mxgraph.aws4.group_security_group;grStroke=0;strokeColor=#147EBA;fillColor=#E6F2F8;verticalAlign=top;align=left;spacingLeft=30;fontColor=#147EBA;dashed=0;rounded=1;shadow=0;glass=0;sketch=0;strokeWidth=1;" parent="neJseO_to8Oxgh6lxZQH-15" vertex="1">
          <mxGeometry x="280" y="40.5" width="201" height="119.5" as="geometry" />
        </mxCell>
        <mxCell id="neJseO_to8Oxgh6lxZQH-35" value="&lt;font style=&quot;font-size: 15px;&quot;&gt;192.168.40.0/24&lt;/font&gt;" style="rounded=1;whiteSpace=wrap;html=1;fillColor=none;strokeWidth=1;strokeColor=#4d27aa;glass=0;shadow=0;" parent="neJseO_to8Oxgh6lxZQH-34" vertex="1">
          <mxGeometry x="20.5" y="40.5" width="160" height="40" as="geometry" />
        </mxCell>
        <mxCell id="neJseO_to8Oxgh6lxZQH-43" style="edgeStyle=orthogonalEdgeStyle;rounded=0;orthogonalLoop=1;jettySize=auto;html=1;exitX=0.5;exitY=1;exitDx=0;exitDy=0;fontSize=15;" parent="1" source="NTJq8n4EPSYoU_xXzW_G-30" target="NTJq8n4EPSYoU_xXzW_G-30" edge="1">
          <mxGeometry relative="1" as="geometry" />
        </mxCell>
        <mxCell id="EgiFuY5ToucnaRxVSp4U-48" value="AP" style="dashed=0;verticalAlign=top;fontStyle=0;fillColor=none;" vertex="1" parent="1">
          <mxGeometry x="800" y="320" width="680" height="560" as="geometry" />
        </mxCell>
        <mxCell id="EgiFuY5ToucnaRxVSp4U-89" value="B존" style="fillColor=#fff2cc;strokeColor=#d6b656;dashed=1;verticalAlign=top;fontStyle=0;" vertex="1" parent="1">
          <mxGeometry x="840" y="360" width="280" height="480" as="geometry" />
        </mxCell>
        <mxCell id="EgiFuY5ToucnaRxVSp4U-38" value="C존" style="fillColor=none;strokeColor=#000000;dashed=1;verticalAlign=top;fontStyle=0;fontColor=#5A6C86;" vertex="1" parent="1">
          <mxGeometry x="1160.5" y="360.25" width="280" height="200" as="geometry" />
        </mxCell>
        <mxCell id="EgiFuY5ToucnaRxVSp4U-27" value="B존" style="fillColor=#fff2cc;strokeColor=#d6b656;dashed=1;verticalAlign=top;fontStyle=0;" vertex="1" parent="1">
          <mxGeometry x="440" y="320" width="320" height="560" as="geometry" />
        </mxCell>
        <mxCell id="EgiFuY5ToucnaRxVSp4U-25" value="A존" style="fillColor=#f8cecc;strokeColor=#b85450;dashed=1;verticalAlign=top;fontStyle=0;" vertex="1" parent="1">
          <mxGeometry x="79" y="320" width="321" height="560" as="geometry" />
        </mxCell>
        <mxCell id="NTJq8n4EPSYoU_xXzW_G-2" value="VLAN 1 - 연구개발" style="points=[[0,0],[0.25,0],[0.5,0],[0.75,0],[1,0],[1,0.25],[1,0.5],[1,0.75],[1,1],[0.75,1],[0.5,1],[0.25,1],[0,1],[0,0.75],[0,0.5],[0,0.25]];outlineConnect=0;gradientColor=none;html=1;whiteSpace=wrap;fontSize=12;fontStyle=0;container=1;pointerEvents=0;collapsible=0;recursiveResize=0;shape=mxgraph.aws4.group;grIcon=mxgraph.aws4.group_security_group;grStroke=0;strokeColor=#147EBA;fillColor=#E6F2F8;verticalAlign=top;align=left;spacingLeft=30;fontColor=#147EBA;dashed=0;rounded=1;shadow=0;glass=0;sketch=0;strokeWidth=1;" parent="1" vertex="1">
          <mxGeometry x="139" y="360" width="201" height="120.5" as="geometry" />
        </mxCell>
        <mxCell id="NTJq8n4EPSYoU_xXzW_G-3" value="&lt;font style=&quot;font-size: 15px;&quot;&gt;192.168.1.0/24&lt;/font&gt;" style="rounded=1;whiteSpace=wrap;html=1;fillColor=none;strokeWidth=1;strokeColor=#4d27aa;glass=0;shadow=0;" parent="NTJq8n4EPSYoU_xXzW_G-2" vertex="1">
          <mxGeometry x="20.5" y="41.5" width="160" height="40" as="geometry" />
        </mxCell>
        <mxCell id="NTJq8n4EPSYoU_xXzW_G-8" value="임직원" style="points=[[0,0],[0.25,0],[0.5,0],[0.75,0],[1,0],[1,0.25],[1,0.5],[1,0.75],[1,1],[0.75,1],[0.5,1],[0.25,1],[0,1],[0,0.75],[0,0.5],[0,0.25]];outlineConnect=0;gradientColor=none;html=1;whiteSpace=wrap;fontSize=12;fontStyle=0;container=1;pointerEvents=0;collapsible=0;recursiveResize=0;shape=mxgraph.aws4.group;grIcon=mxgraph.aws4.group_security_group;grStroke=0;strokeColor=#147EBA;fillColor=#E6F2F8;verticalAlign=top;align=left;spacingLeft=30;fontColor=#147EBA;dashed=0;rounded=1;shadow=0;glass=0;sketch=0;strokeWidth=1;" parent="1" vertex="1">
          <mxGeometry x="1200" y="400" width="201" height="120.5" as="geometry" />
        </mxCell>
        <mxCell id="NTJq8n4EPSYoU_xXzW_G-9" value="&lt;font style=&quot;font-size: 15px;&quot;&gt;192.168.4.0/24&lt;/font&gt;" style="rounded=1;whiteSpace=wrap;html=1;fillColor=none;strokeWidth=1;strokeColor=#4d27aa;glass=0;shadow=0;" parent="NTJq8n4EPSYoU_xXzW_G-8" vertex="1">
          <mxGeometry x="20.5" y="40.5" width="160" height="40" as="geometry" />
        </mxCell>
        <mxCell id="LbLBr8xy3YgAkBmWXg0m-4" value="AP&amp;nbsp;- 연구개발부분, 임원" style="points=[[0,0],[0.25,0],[0.5,0],[0.75,0],[1,0],[1,0.25],[1,0.5],[1,0.75],[1,1],[0.75,1],[0.5,1],[0.25,1],[0,1],[0,0.75],[0,0.5],[0,0.25]];outlineConnect=0;gradientColor=none;html=1;whiteSpace=wrap;fontSize=12;fontStyle=0;container=1;pointerEvents=0;collapsible=0;recursiveResize=0;shape=mxgraph.aws4.group;grIcon=mxgraph.aws4.group_security_group;grStroke=0;strokeColor=#147EBA;fillColor=#E6F2F8;verticalAlign=top;align=left;spacingLeft=30;fontColor=#147EBA;dashed=0;rounded=1;shadow=0;glass=0;sketch=0;strokeWidth=1;" parent="1" vertex="1">
          <mxGeometry x="871.5" y="579" width="201" height="120.5" as="geometry" />
        </mxCell>
        <mxCell id="LbLBr8xy3YgAkBmWXg0m-5" value="&lt;font style=&quot;font-size: 15px;&quot;&gt;192.168.11.0/24&lt;/font&gt;" style="rounded=1;whiteSpace=wrap;html=1;fillColor=none;strokeWidth=1;strokeColor=#4d27aa;glass=0;shadow=0;" parent="LbLBr8xy3YgAkBmWXg0m-4" vertex="1">
          <mxGeometry x="20.5" y="40.5" width="160" height="40" as="geometry" />
        </mxCell>
        <mxCell id="LbLBr8xy3YgAkBmWXg0m-6" value="AP&amp;nbsp;- 임직원" style="points=[[0,0],[0.25,0],[0.5,0],[0.75,0],[1,0],[1,0.25],[1,0.5],[1,0.75],[1,1],[0.75,1],[0.5,1],[0.25,1],[0,1],[0,0.75],[0,0.5],[0,0.25]];outlineConnect=0;gradientColor=none;html=1;whiteSpace=wrap;fontSize=12;fontStyle=0;container=1;pointerEvents=0;collapsible=0;recursiveResize=0;shape=mxgraph.aws4.group;grIcon=mxgraph.aws4.group_security_group;grStroke=0;strokeColor=#147EBA;fillColor=#E6F2F8;verticalAlign=top;align=left;spacingLeft=30;fontColor=#147EBA;dashed=0;rounded=1;shadow=0;glass=0;sketch=0;strokeWidth=1;" parent="1" vertex="1">
          <mxGeometry x="500" y="679.5" width="201" height="120.5" as="geometry" />
        </mxCell>
        <mxCell id="LbLBr8xy3YgAkBmWXg0m-7" value="&lt;font style=&quot;font-size: 15px;&quot;&gt;192.168.14.0/24&lt;/font&gt;" style="rounded=1;whiteSpace=wrap;html=1;fillColor=none;strokeWidth=1;strokeColor=#4d27aa;glass=0;shadow=0;" parent="LbLBr8xy3YgAkBmWXg0m-6" vertex="1">
          <mxGeometry x="20.5" y="40.5" width="160" height="40" as="geometry" />
        </mxCell>
        <mxCell id="LbLBr8xy3YgAkBmWXg0m-8" value="AP - 게스트" style="points=[[0,0],[0.25,0],[0.5,0],[0.75,0],[1,0],[1,0.25],[1,0.5],[1,0.75],[1,1],[0.75,1],[0.5,1],[0.25,1],[0,1],[0,0.75],[0,0.5],[0,0.25]];outlineConnect=0;gradientColor=none;html=1;whiteSpace=wrap;fontSize=12;fontStyle=0;container=1;pointerEvents=0;collapsible=0;recursiveResize=0;shape=mxgraph.aws4.group;grIcon=mxgraph.aws4.group_security_group;grStroke=0;strokeColor=#147EBA;fillColor=#E6F2F8;verticalAlign=top;align=left;spacingLeft=30;fontColor=#147EBA;dashed=0;rounded=1;shadow=0;glass=0;sketch=0;strokeWidth=1;" parent="1" vertex="1">
          <mxGeometry x="500" y="520" width="201" height="120.5" as="geometry" />
        </mxCell>
        <mxCell id="LbLBr8xy3YgAkBmWXg0m-9" value="&lt;font style=&quot;font-size: 15px;&quot;&gt;192.168.10.0/24&lt;/font&gt;" style="rounded=1;whiteSpace=wrap;html=1;fillColor=none;strokeWidth=1;strokeColor=#4d27aa;glass=0;shadow=0;" parent="LbLBr8xy3YgAkBmWXg0m-8" vertex="1">
          <mxGeometry x="20.5" y="40.5" width="160" height="40" as="geometry" />
        </mxCell>
        <mxCell id="LbLBr8xy3YgAkBmWXg0m-11" value="게스트" style="points=[[0,0],[0.25,0],[0.5,0],[0.75,0],[1,0],[1,0.25],[1,0.5],[1,0.75],[1,1],[0.75,1],[0.5,1],[0.25,1],[0,1],[0,0.75],[0,0.5],[0,0.25]];outlineConnect=0;gradientColor=none;html=1;whiteSpace=wrap;fontSize=12;fontStyle=0;container=1;pointerEvents=0;collapsible=0;recursiveResize=0;shape=mxgraph.aws4.group;grIcon=mxgraph.aws4.group_security_group;grStroke=0;strokeColor=#147EBA;fillColor=#E6F2F8;verticalAlign=top;align=left;spacingLeft=30;fontColor=#147EBA;dashed=0;rounded=1;shadow=0;glass=0;sketch=0;strokeWidth=1;" parent="1" vertex="1">
          <mxGeometry x="500" y="360" width="201" height="120.5" as="geometry" />
        </mxCell>
        <mxCell id="LbLBr8xy3YgAkBmWXg0m-12" value="&lt;font style=&quot;font-size: 15px;&quot;&gt;192.168.0.0/24&lt;/font&gt;" style="rounded=1;whiteSpace=wrap;html=1;fillColor=none;strokeWidth=1;strokeColor=#4d27aa;glass=0;shadow=0;" parent="LbLBr8xy3YgAkBmWXg0m-11" vertex="1">
          <mxGeometry x="20.5" y="40.5" width="160" height="40" as="geometry" />
        </mxCell>
        <mxCell id="EgiFuY5ToucnaRxVSp4U-22" value="" style="edgeStyle=orthogonalEdgeStyle;rounded=0;orthogonalLoop=1;jettySize=auto;html=1;startArrow=classic;startFill=1;endArrow=classic;endFill=1;fillColor=#dae8fc;strokeColor=#6c8ebf;" edge="1" parent="1" source="EgiFuY5ToucnaRxVSp4U-3" target="EgiFuY5ToucnaRxVSp4U-21">
          <mxGeometry relative="1" as="geometry" />
        </mxCell>
        <mxCell id="EgiFuY5ToucnaRxVSp4U-3" value="" style="fontColor=#0066CC;verticalAlign=top;verticalLabelPosition=bottom;labelPosition=center;align=center;html=1;outlineConnect=0;fillColor=#CCCCCC;strokeColor=#6881B3;gradientColor=none;gradientDirection=north;strokeWidth=2;shape=mxgraph.networks.firewall;" vertex="1" parent="1">
          <mxGeometry x="280" width="80" height="80" as="geometry" />
        </mxCell>
        <mxCell id="EgiFuY5ToucnaRxVSp4U-21" value="" style="fontColor=#0066CC;verticalAlign=top;verticalLabelPosition=bottom;labelPosition=center;align=center;html=1;outlineConnect=0;fillColor=#CCCCCC;strokeColor=#6881B3;gradientColor=none;gradientDirection=north;strokeWidth=2;shape=mxgraph.networks.firewall;" vertex="1" parent="1">
          <mxGeometry x="400" width="80" height="80" as="geometry" />
        </mxCell>
        <mxCell id="EgiFuY5ToucnaRxVSp4U-1" value="Router&lt;br&gt;" style="fontColor=#0066CC;verticalAlign=top;verticalLabelPosition=bottom;labelPosition=center;align=center;html=1;outlineConnect=0;fillColor=#CCCCCC;strokeColor=#6881B3;gradientColor=none;gradientDirection=north;strokeWidth=2;shape=mxgraph.networks.router;" vertex="1" parent="1">
          <mxGeometry x="200" y="160" width="80" height="20" as="geometry" />
        </mxCell>
        <mxCell id="EgiFuY5ToucnaRxVSp4U-23" value="" style="edgeStyle=orthogonalEdgeStyle;rounded=0;orthogonalLoop=1;jettySize=auto;html=1;startArrow=classic;startFill=1;endArrow=classic;endFill=1;fillColor=#dae8fc;strokeColor=#6c8ebf;" edge="1" parent="1" source="EgiFuY5ToucnaRxVSp4U-3" target="EgiFuY5ToucnaRxVSp4U-1">
          <mxGeometry relative="1" as="geometry">
            <mxPoint x="370" y="50" as="sourcePoint" />
            <mxPoint x="410" y="50" as="targetPoint" />
            <Array as="points">
              <mxPoint x="310" y="120" />
              <mxPoint x="240" y="120" />
            </Array>
          </mxGeometry>
        </mxCell>
        <mxCell id="EgiFuY5ToucnaRxVSp4U-2" value="Switch" style="fontColor=#0066CC;verticalAlign=top;verticalLabelPosition=bottom;labelPosition=center;align=center;html=1;outlineConnect=0;fillColor=#CCCCCC;strokeColor=#6881B3;gradientColor=none;gradientDirection=north;strokeWidth=2;shape=mxgraph.networks.switch;" vertex="1" parent="1">
          <mxGeometry x="200" y="240" width="80" height="20" as="geometry" />
        </mxCell>
        <mxCell id="neJseO_to8Oxgh6lxZQH-28" value="VLAN 2 - 개발 서버" style="points=[[0,0],[0.25,0],[0.5,0],[0.75,0],[1,0],[1,0.25],[1,0.5],[1,0.75],[1,1],[0.75,1],[0.5,1],[0.25,1],[0,1],[0,0.75],[0,0.5],[0,0.25]];outlineConnect=0;gradientColor=none;html=1;whiteSpace=wrap;fontSize=12;fontStyle=0;container=1;pointerEvents=0;collapsible=0;recursiveResize=0;shape=mxgraph.aws4.group;grIcon=mxgraph.aws4.group_security_group;grStroke=0;strokeColor=#147EBA;fillColor=#E6F2F8;verticalAlign=top;align=left;spacingLeft=30;fontColor=#147EBA;dashed=0;rounded=1;shadow=0;glass=0;sketch=0;strokeWidth=1;" parent="1" vertex="1">
          <mxGeometry x="139" y="520.5" width="201" height="120" as="geometry" />
        </mxCell>
        <mxCell id="neJseO_to8Oxgh6lxZQH-29" value="&lt;font style=&quot;font-size: 15px;&quot;&gt;192.168.10.0/24&lt;/font&gt;" style="rounded=1;whiteSpace=wrap;html=1;fillColor=none;strokeWidth=1;strokeColor=#4d27aa;glass=0;shadow=0;" parent="neJseO_to8Oxgh6lxZQH-28" vertex="1">
          <mxGeometry x="20.5" y="40.5" width="160" height="40" as="geometry" />
        </mxCell>
        <mxCell id="EgiFuY5ToucnaRxVSp4U-26" value="" style="edgeStyle=orthogonalEdgeStyle;rounded=0;orthogonalLoop=1;jettySize=auto;html=1;startArrow=classic;startFill=1;endArrow=classic;endFill=1;fillColor=#dae8fc;strokeColor=#6c8ebf;" edge="1" parent="1" source="EgiFuY5ToucnaRxVSp4U-2" target="EgiFuY5ToucnaRxVSp4U-25">
          <mxGeometry relative="1" as="geometry">
            <mxPoint x="430" y="250" as="sourcePoint" />
            <mxPoint x="430" y="310" as="targetPoint" />
            <Array as="points">
              <mxPoint x="260" y="370" />
              <mxPoint x="260" y="370" />
            </Array>
          </mxGeometry>
        </mxCell>
        <mxCell id="EgiFuY5ToucnaRxVSp4U-28" value="Router&lt;br&gt;" style="fontColor=#0066CC;verticalAlign=top;verticalLabelPosition=bottom;labelPosition=center;align=center;html=1;outlineConnect=0;fillColor=#CCCCCC;strokeColor=#6881B3;gradientColor=none;gradientDirection=north;strokeWidth=2;shape=mxgraph.networks.router;" vertex="1" parent="1">
          <mxGeometry x="560.5" y="160" width="80" height="20" as="geometry" />
        </mxCell>
        <mxCell id="EgiFuY5ToucnaRxVSp4U-29" value="Switch" style="fontColor=#0066CC;verticalAlign=top;verticalLabelPosition=bottom;labelPosition=center;align=center;html=1;outlineConnect=0;fillColor=#CCCCCC;strokeColor=#6881B3;gradientColor=none;gradientDirection=north;strokeWidth=2;shape=mxgraph.networks.switch;" vertex="1" parent="1">
          <mxGeometry x="560.5" y="240" width="80" height="20" as="geometry" />
        </mxCell>
        <mxCell id="EgiFuY5ToucnaRxVSp4U-30" value="" style="edgeStyle=orthogonalEdgeStyle;rounded=0;orthogonalLoop=1;jettySize=auto;html=1;startArrow=classic;startFill=1;endArrow=classic;endFill=1;fillColor=#fff2cc;strokeColor=#d6b656;" edge="1" parent="1" source="EgiFuY5ToucnaRxVSp4U-29" target="EgiFuY5ToucnaRxVSp4U-27">
          <mxGeometry relative="1" as="geometry">
            <mxPoint x="250" y="270" as="sourcePoint" />
            <mxPoint x="250" y="330" as="targetPoint" />
            <Array as="points">
              <mxPoint x="601" y="430" />
              <mxPoint x="601" y="430" />
            </Array>
          </mxGeometry>
        </mxCell>
        <mxCell id="EgiFuY5ToucnaRxVSp4U-31" value="" style="edgeStyle=orthogonalEdgeStyle;rounded=0;orthogonalLoop=1;jettySize=auto;html=1;startArrow=classic;startFill=1;endArrow=classic;endFill=1;fillColor=#dae8fc;strokeColor=#6c8ebf;" edge="1" parent="1" source="EgiFuY5ToucnaRxVSp4U-1" target="EgiFuY5ToucnaRxVSp4U-2">
          <mxGeometry relative="1" as="geometry">
            <mxPoint x="239.62" y="180" as="sourcePoint" />
            <mxPoint x="239.62" y="240" as="targetPoint" />
            <Array as="points" />
          </mxGeometry>
        </mxCell>
        <mxCell id="EgiFuY5ToucnaRxVSp4U-35" value="" style="edgeStyle=orthogonalEdgeStyle;rounded=0;orthogonalLoop=1;jettySize=auto;html=1;startArrow=classic;startFill=1;endArrow=classic;endFill=1;fillColor=#fff2cc;strokeColor=#d6b656;" edge="1" parent="1" source="EgiFuY5ToucnaRxVSp4U-3" target="EgiFuY5ToucnaRxVSp4U-28">
          <mxGeometry relative="1" as="geometry">
            <mxPoint x="320" y="90" as="sourcePoint" />
            <mxPoint x="250" y="170" as="targetPoint" />
            <Array as="points">
              <mxPoint x="320" y="130" />
              <mxPoint x="590" y="130" />
            </Array>
          </mxGeometry>
        </mxCell>
        <mxCell id="EgiFuY5ToucnaRxVSp4U-40" value="" style="edgeStyle=orthogonalEdgeStyle;rounded=0;orthogonalLoop=1;jettySize=auto;html=1;startArrow=classic;startFill=1;endArrow=classic;endFill=1;fillColor=#fff2cc;strokeColor=#d6b656;" edge="1" parent="1" source="EgiFuY5ToucnaRxVSp4U-28" target="EgiFuY5ToucnaRxVSp4U-29">
          <mxGeometry relative="1" as="geometry">
            <mxPoint x="890" y="130" as="sourcePoint" />
            <mxPoint x="890" y="190" as="targetPoint" />
            <Array as="points">
              <mxPoint x="590" y="210" />
              <mxPoint x="590" y="210" />
            </Array>
          </mxGeometry>
        </mxCell>
        <mxCell id="EgiFuY5ToucnaRxVSp4U-36" value="" style="edgeStyle=orthogonalEdgeStyle;rounded=0;orthogonalLoop=1;jettySize=auto;html=1;startArrow=classic;startFill=1;endArrow=classic;endFill=1;fillColor=#dae8fc;strokeColor=#6c8ebf;" edge="1" parent="1" source="EgiFuY5ToucnaRxVSp4U-3" target="EgiFuY5ToucnaRxVSp4U-28">
          <mxGeometry relative="1" as="geometry">
            <mxPoint x="330" y="90" as="sourcePoint" />
            <mxPoint x="750" y="170" as="targetPoint" />
            <Array as="points">
              <mxPoint x="340" y="110" />
              <mxPoint x="610" y="110" />
            </Array>
          </mxGeometry>
        </mxCell>
        <mxCell id="EgiFuY5ToucnaRxVSp4U-42" value="" style="edgeStyle=orthogonalEdgeStyle;rounded=0;orthogonalLoop=1;jettySize=auto;html=1;startArrow=classic;startFill=1;endArrow=classic;endFill=1;fillColor=#dae8fc;strokeColor=#6c8ebf;" edge="1" parent="1" source="EgiFuY5ToucnaRxVSp4U-28" target="EgiFuY5ToucnaRxVSp4U-43">
          <mxGeometry relative="1" as="geometry">
            <mxPoint x="340" y="90" as="sourcePoint" />
            <mxPoint x="620" y="170" as="targetPoint" />
            <Array as="points">
              <mxPoint x="610" y="210" />
              <mxPoint x="970" y="210" />
            </Array>
          </mxGeometry>
        </mxCell>
        <mxCell id="EgiFuY5ToucnaRxVSp4U-43" value="Switch" style="fontColor=#0066CC;verticalAlign=top;verticalLabelPosition=bottom;labelPosition=center;align=center;html=1;outlineConnect=0;fillColor=#CCCCCC;strokeColor=#6881B3;gradientColor=none;gradientDirection=north;strokeWidth=2;shape=mxgraph.networks.switch;" vertex="1" parent="1">
          <mxGeometry x="920" y="240" width="80" height="20" as="geometry" />
        </mxCell>
        <mxCell id="EgiFuY5ToucnaRxVSp4U-44" value="" style="edgeStyle=orthogonalEdgeStyle;rounded=0;orthogonalLoop=1;jettySize=auto;html=1;startArrow=classic;startFill=1;endArrow=classic;endFill=1;fillColor=#fff2cc;strokeColor=#d6b656;" edge="1" parent="1" source="EgiFuY5ToucnaRxVSp4U-28" target="EgiFuY5ToucnaRxVSp4U-43">
          <mxGeometry relative="1" as="geometry">
            <mxPoint x="611" y="190" as="sourcePoint" />
            <mxPoint x="611" y="250" as="targetPoint" />
            <Array as="points">
              <mxPoint x="601" y="220" />
              <mxPoint x="950" y="220" />
            </Array>
          </mxGeometry>
        </mxCell>
        <mxCell id="EgiFuY5ToucnaRxVSp4U-47" value="" style="edgeStyle=orthogonalEdgeStyle;rounded=0;orthogonalLoop=1;jettySize=auto;html=1;startArrow=classic;startFill=1;endArrow=classic;endFill=1;fillColor=#f5f5f5;strokeColor=#000000;" edge="1" parent="1" source="EgiFuY5ToucnaRxVSp4U-3" target="EgiFuY5ToucnaRxVSp4U-28">
          <mxGeometry relative="1" as="geometry">
            <mxPoint x="340" y="90" as="sourcePoint" />
            <mxPoint x="620" y="170" as="targetPoint" />
            <Array as="points">
              <mxPoint x="330" y="120" />
              <mxPoint x="600" y="120" />
            </Array>
          </mxGeometry>
        </mxCell>
        <mxCell id="EgiFuY5ToucnaRxVSp4U-90" value="A존" style="fillColor=#f8cecc;strokeColor=#b85450;dashed=1;verticalAlign=top;fontStyle=0;" vertex="1" parent="1">
          <mxGeometry x="1159" y="600" width="281" height="240" as="geometry" />
        </mxCell>
        <mxCell id="EgiFuY5ToucnaRxVSp4U-91" value="VLAN 1 - 연구개발" style="points=[[0,0],[0.25,0],[0.5,0],[0.75,0],[1,0],[1,0.25],[1,0.5],[1,0.75],[1,1],[0.75,1],[0.5,1],[0.25,1],[0,1],[0,0.75],[0,0.5],[0,0.25]];outlineConnect=0;gradientColor=none;html=1;whiteSpace=wrap;fontSize=12;fontStyle=0;container=1;pointerEvents=0;collapsible=0;recursiveResize=0;shape=mxgraph.aws4.group;grIcon=mxgraph.aws4.group_security_group;grStroke=0;strokeColor=#147EBA;fillColor=#E6F2F8;verticalAlign=top;align=left;spacingLeft=30;fontColor=#147EBA;dashed=0;rounded=1;shadow=0;glass=0;sketch=0;strokeWidth=1;" vertex="1" parent="1">
          <mxGeometry x="1200" y="640.5" width="201" height="120.5" as="geometry" />
        </mxCell>
        <mxCell id="EgiFuY5ToucnaRxVSp4U-92" value="&lt;font style=&quot;font-size: 15px;&quot;&gt;192.168.1.0/24&lt;/font&gt;" style="rounded=1;whiteSpace=wrap;html=1;fillColor=none;strokeWidth=1;strokeColor=#4d27aa;glass=0;shadow=0;" vertex="1" parent="EgiFuY5ToucnaRxVSp4U-91">
          <mxGeometry x="20.5" y="41.5" width="160" height="40" as="geometry" />
        </mxCell>
      </root>
    </mxGraphModel>
  </diagram>
</mxfile>
